HIERARCHY
ROOT Hips
{
  OFFSET 45.2623 98.3181 9.66919
  CHANNELS 6 Xposition Yposition Zposition Zrotation Xrotation Yrotation
  JOINT spine
  {
    OFFSET 0 8.30103 0.477351
    CHANNELS 3 Zrotation Xrotation Yrotation
    JOINT spine1
    {
      OFFSET 0 10.4565 0
      CHANNELS 3 Zrotation Xrotation Yrotation
      JOINT spine2
      {
        OFFSET 0 10.0192 0
        CHANNELS 3 Zrotation Xrotation Yrotation
        JOINT Neck
        {
          OFFSET 0 25.7235 1.22641
          CHANNELS 3 Zrotation Xrotation Yrotation
          JOINT Head
          {
            OFFSET 0 7.77175 0
            CHANNELS 3 Zrotation Xrotation Yrotation
            End Site
            {
              OFFSET 0 18.812 -6.20394
            }
          }
        }
        JOINT RightShoulder
        {
          OFFSET -4.2188 10.82 -0.587439
          CHANNELS 3 Zrotation Xrotation Yrotation
          JOINT RightArm
          {
            OFFSET 0 14.1914 0
            CHANNELS 3 Zrotation Xrotation Yrotation
            JOINT RightArmRoll
            {
              OFFSET 0 7.16409 0
              CHANNELS 3 Zrotation Xrotation Yrotation
              JOINT RightForeArm
              {
                OFFSET 0 20.8665 0
                CHANNELS 3 Zrotation Xrotation Yrotation
                JOINT RightForeArmRoll
                {
                  OFFSET 0 8.03921 0
                  CHANNELS 3 Zrotation Xrotation Yrotation
                  JOINT RightHand
                  {
                    OFFSET 0 16.133 0
                    CHANNELS 3 Zrotation Xrotation Yrotation
                    End Site
                    {
                      OFFSET 0 0 0
                    }
                  }
                }
              }
            }
          }
        }
        JOINT LeftShoulder
        {
          OFFSET 4.2188 10.82 -0.587439
          CHANNELS 3 Zrotation Xrotation Yrotation
          JOINT LeftArm
          {
            OFFSET 0 14.1914 0
            CHANNELS 3 Zrotation Xrotation Yrotation
            JOINT LeftArmRoll
            {
              OFFSET 0 7.16409 0
              CHANNELS 3 Zrotation Xrotation Yrotation
              JOINT LeftForeArm
              {
                OFFSET 0 20.8665 0
                CHANNELS 3 Zrotation Xrotation Yrotation
                JOINT LeftForeArmRoll
                {
                  OFFSET 0 8.03921 0
                  CHANNELS 3 Zrotation Xrotation Yrotation
                  JOINT LeftHand
                  {
                    OFFSET 0 16.133 0
                    CHANNELS 3 Zrotation Xrotation Yrotation
                    End Site
                    {
                      OFFSET 0 0 0
                    }
                  }
                }
              }
            }
          }
        }
      }
    }
  }
  JOINT RightUpLeg
  {
    OFFSET -7.35773 -1.34921 -1.13181
    CHANNELS 3 Zrotation Xrotation Yrotation
    JOINT RightUpLegRoll
    {
      OFFSET 0 18.9168 0
      CHANNELS 3 Zrotation Xrotation Yrotation
      JOINT RightLeg
      {
        OFFSET 0 -23.4256 0
        CHANNELS 3 Zrotation Xrotation Yrotation
        JOINT RightLegRoll
        {
          OFFSET 0 23.5023 0
          CHANNELS 3 Zrotation Xrotation Yrotation
          JOINT RightFoot
          {
            OFFSET 0 19.5617 0
            CHANNELS 3 Zrotation Xrotation Yrotation
            JOINT RightToeBase
            {
              OFFSET 0 16.3526 0
              CHANNELS 3 Zrotation Xrotation Yrotation
              End Site
              {
                OFFSET 0.00693125 7.91944 -0.912837
              }
            }
          }
        }
      }
    }
  }
  JOINT LeftUpLeg
  {
    OFFSET 7.35773 -1.34921 -1.13181
    CHANNELS 3 Zrotation Xrotation Yrotation
    JOINT LeftUpLegRoll
    {
      OFFSET 0 18.9169 0
      CHANNELS 3 Zrotation Xrotation Yrotation
      JOINT LeftLeg
      {
        OFFSET 0 23.4255 0
        CHANNELS 3 Zrotation Xrotation Yrotation
        JOINT LeftLegRoll
        {
          OFFSET 0 23.7195 0
          CHANNELS 3 Zrotation Xrotation Yrotation
          JOINT LeftFoot
          {
            OFFSET 0 19.3444 0
            CHANNELS 3 Zrotation Xrotation Yrotation
            JOINT LeftToeBase
            {
              OFFSET 0 16.3526 0
              CHANNELS 3 Zrotation Xrotation Yrotation
              End Site
              {
                OFFSET -0.0310629 7.91944 -0.912836
              }
            }
          }
        }
      }
    }
  }
}
MOTION
Frames: 9
Frame Time: 0.00208333
42.9832 98.6906 10.3031 0.567727 -3.06937 2.52989 0.466884 -0.797283 0.218169 0.912751 2.40963 0.383076 0.909106 4.05457 0.368065 -3.9559 17.7424 6.91542 -3.04225 -3.50802 5.31571 62.9288 0.927222 0.0068766 124.981 36.5234 -43.8917 2.8625e-014 2.22639e-014 1.27222e-014 39.9126 60.3582 -26.4675 1.29797e-006 -1.42883e-005 -3 8.02907 -4.95127 0.697509 -60.5702 -3.96915 2.59298 -98.5929 24.0783 7.67354 5.94826e-006 2.59074e-006 1.92317e-006 -17.1167 58.5845 11.9175 1.29915e-007 -7.68407e-006 3.00001 -8.02911 -4.95137 -0.697671 174.816 0.319879 1.35034 180 7.01527e-015 178.838 176.919 6.63052 179.628 2.08359e-006 -2.56809e-006 0.0539709 -17.9275 66.8847 18.656 8.12789 25.2331 -3.48407 -172.444 1.55734 -0.726108 4.54188e-006 -4.6773e-006 -1.21769 -2.84036 -10.6422 0.507565 2.45166e-006 -6.74663e-007 -0.138382 18.5291 67.5866 -19.2204 -8.13649 25.2327 3.48774 
42.954 98.7425 10.3382 0.570533 -3.08509 2.57897 0.466894 -0.794495 0.220133 0.914399 2.41522 0.386909 0.91071 4.06016 0.371873 -3.86047 17.8309 6.94628 -3.17761 -3.5786 5.35257 63.0128 0.908982 -0.0140677 124.73 36.4732 -43.529 1.59028e-014 0 6.36111e-015 39.7066 60.2224 -26.2555 1.29797e-006 -1.42883e-005 -3 8.02907 -4.95127 0.697509 -60.547 -3.97282 2.59343 -98.6556 24.024 7.71328 5.94826e-006 2.59074e-006 1.92317e-006 -17.1169 58.773 11.9675 1.29915e-007 -7.68407e-006 3.00001 -8.02911 -4.95137 -0.697671 174.833 0.354245 1.30424 180 7.01527e-015 178.838 176.986 6.75374 179.621 2.08359e-006 -2.56809e-006 0.0567915 -17.9775 66.9509 18.7058 8.12789 25.2331 -3.48407 -172.441 1.47559 -0.712906 4.54188e-006 -4.6773e-006 -1.21881 -2.82299 -10.4949 0.509556 2.45166e-006 -6.74663e-007 -0.134637 18.4829 67.5274 -19.1701 -8.13649 25.2327 3.48774 
42.934 98.7798 10.3445 0.573236 -3.10099 2.62763 0.466909 -0.791676 0.222132 0.916114 2.42088 0.390809 0.912382 4.06582 0.375747 -3.76413 17.9197 6.97706 -3.31459 -3.64958 5.38938 63.0956 0.890485 -0.0350423 124.482 36.4193 -43.1672 1.59028e-014 1.90833e-014 6.36111e-015 39.5029 60.087 -26.046 1.29797e-006 -1.42883e-005 -3 8.02907 -4.95127 0.697509 -60.524 -3.97677 2.59407 -98.7172 23.9701 7.75257 5.94826e-006 2.59074e-006 1.92317e-006 -17.118 58.9618 12.0185 1.29915e-007 -7.68407e-006 3.00001 -8.02911 -4.95137 -0.697671 174.85 0.390882 1.25635 180 7.01527e-015 178.838 177.057 6.88153 179.614 2.08359e-006 -2.56809e-006 0.0597067 -18.0297 67.0196 18.7578 8.12789 25.2331 -3.48407 -172.438 1.39105 -0.699208 4.54188e-006 -4.6773e-006 -1.21997 -2.80521 -10.3427 0.511619 2.45166e-006 -6.74663e-007 -0.130782 18.4354 67.466 -19.1184 -8.13649 25.2327 3.48774 
42.9305 98.7637 10.3293 0.575875 -3.117 2.67598 0.466926 -0.788837 0.224156 0.917875 2.42658 0.394754 0.914099 4.07151 0.379667 -3.6672 18.0088 7.00781 -3.45267 -3.72084 5.42615 63.1776 0.871809 -0.056038 124.237 36.3624 -42.8061 3.18055e-015 0 -6.36111e-015 39.3014 59.9518 -25.8388 1.29797e-006 -1.42883e-005 -3 8.02907 -4.95127 0.697509 -60.5012 -3.98091 2.59484 -98.7782 23.9165 7.79152 5.94826e-006 2.59074e-006 1.92317e-006 -17.1199 59.1509 12.0706 1.29915e-007 -7.68407e-006 3.00001 -8.02911 -4.95137 -0.697671 174.868 0.42911 1.2072 180 7.01527e-015 178.838 177.129 7.01253 179.607 2.08359e-006 -2.56809e-006 0.0626884 -18.0835 67.0899 18.8113 8.12789 25.2331 -3.48407 -172.436 1.30455 -0.685165 4.54188e-006 -4.6773e-006 -1.22114 -2.78717 -10.187 0.513733 2.45166e-006 -6.74663e-007 -0.12685 18.3871 67.4032 -19.0657 -8.13649 25.2327 3.48774 
42.9076 98.8479 10.3466 0.578488 -3.13308 2.72416 0.466945 -0.785987 0.226193 0.919663 2.4323 0.398727 0.915843 4.07723 0.383613 -3.56996 18.0981 7.03856 -3.59135 -3.79225 5.46292 63.2592 0.853029 -0.0770458 123.994 36.3027 -42.4457 1.59028e-014 9.54166e-015 3.18055e-015 39.1021 59.8164 -25.6337 1.29797e-006 -1.42883e-005 -3 8.02907 -4.95127 0.697509 -60.4785 -3.98517 2.59569 -98.8387 23.863 7.83029 5.94826e-006 2.59074e-006 1.92317e-006 -17.1227 59.3401 12.1235 1.29915e-007 -7.68407e-006 3.00001 -8.02911 -4.95137 -0.697671 174.885 0.468246 1.15734 180 7.01527e-015 178.838 177.202 7.14538 179.6 2.08359e-006 -2.56809e-006 0.0657079 -18.1384 67.1611 18.866 8.12789 25.2331 -3.48407 -172.434 1.21694 -0.670925 4.54188e-006 -4.6773e-006 -1.22232 -2.76896 -10.0294 0.515876 2.45166e-006 -6.74663e-007 -0.122873 18.3385 67.3396 -19.0126 -8.13649 25.2327 3.48774 
42.895 98.8344 10.3415 0.581115 -3.14917 2.77231 0.466965 -0.783133 0.228234 0.921457 2.43802 0.402705 0.917592 4.08296 0.387565 -3.47273 18.1874 7.06934 -3.7301 -3.86369 5.49969 63.3407 0.834224 -0.0980565 123.752 36.2408 -42.0857 1.27222e-014 -6.36111e-015 6.36111e-015 38.9047 59.6808 -25.4304 1.29797e-006 -1.42883e-005 -3 8.02907 -4.95127 0.697509 -60.4558 -3.98946 2.59655 -98.899 23.8096 7.86898 5.94826e-006 2.59074e-006 1.92317e-006 -17.1262 59.5293 12.1772 1.29915e-007 -7.68407e-006 3.00001 -8.02911 -4.95137 -0.697671 174.903 0.507611 1.1073 180 7.01527e-015 178.838 177.276 7.27867 179.593 2.08359e-006 -2.56809e-006 0.0687369 -18.1939 67.2326 18.9212 8.12789 25.2331 -3.48407 -172.431 1.12904 -0.656639 4.54188e-006 -4.6773e-006 -1.2235 -2.75073 -9.87126 0.518028 2.45166e-006 -6.74663e-007 -0.118885 18.2899 67.2757 -18.9597 -8.13649 25.2327 3.48774 
42.8619 98.679 10.3538 0.583796 -3.16523 2.82054 0.466983 -0.780285 0.230268 0.923236 2.44374 0.406671 0.919327 4.08868 0.391504 -3.3758 18.2766 7.1002 -3.86842 -3.93504 5.53649 63.4224 0.815469 -0.119061 123.512 36.177 -41.726 9.54166e-015 -6.36111e-015 6.36111e-015 38.7091 59.5445 -25.2289 1.29797e-006 -1.42883e-005 -3 8.02907 -4.95127 0.697509 -60.4331 -3.99369 2.59738 -98.9595 23.7561 7.90773 5.94826e-006 2.59074e-006 1.92317e-006 -17.1303 59.7184 12.2315 1.29915e-007 -7.68407e-006 3.00001 -8.02911 -4.95137 -0.697671 174.921 0.546523 1.05761 180 7.01527e-015 178.838 177.349 7.41105 179.586 2.08359e-006 -2.56809e-006 0.0717469 -18.2493 67.3036 18.9763 8.12789 25.2331 -3.48407 -172.429 1.0417 -0.642454 4.54188e-006 -4.6773e-006 -1.22468 -2.7326 -9.71412 0.520169 2.45166e-006 -6.74663e-007 -0.114919 18.242 67.2122 -18.9074 -8.13649 25.2327 3.48774 
42.8488 98.7283 10.3563 0.586569 -3.18119 2.86899 0.466999 -0.777452 0.232285 0.924981 2.44943 0.410604 0.921028 4.09436 0.395411 -3.27947 18.3655 7.13117 -4.00579 -4.00617 5.57333 63.5046 0.796844 -0.14005 123.271 36.1118 -41.3666 3.18055e-015 -6.36111e-015 -1.27222e-014 38.5153 59.4075 -25.0288 1.29797e-006 -1.42883e-005 -3 8.02907 -4.95127 0.697509 -60.4103 -3.99778 2.59811 -99.0203 23.7024 7.94668 5.94826e-006 2.59074e-006 1.92317e-006 -17.135 59.9072 12.2864 1.29915e-007 -7.68407e-006 3.00001 -8.02911 -4.95137 -0.697671 174.939 0.584301 1.00882 180 7.01527e-015 178.838 177.421 7.54115 179.579 2.08359e-006 -2.56809e-006 0.0747096 -18.3041 67.3733 19.0309 8.12789 25.2331 -3.48407 -172.426 0.955763 -0.628519 4.54188e-006 -4.6773e-006 -1.22585 -2.71467 -9.55943 0.522275 2.45166e-006 -6.74663e-007 -0.111009 18.1952 67.1497 -18.8563 -8.13649 25.2327 3.48774 
42.8372 98.8487 10.3623 0.589474 -3.19701 2.91778 0.467011 -0.774642 0.234274 0.926671 2.45506 0.414483 0.922675 4.1 0.399266 -3.18404 18.4542 7.16228 -4.14171 -4.07697 5.61025 63.5877 0.778423 -0.161014 123.031 36.0456 -41.0072 -1.05934e-030 -1.90833e-014 -3.18055e-015 38.3232 59.2694 -24.83 1.29797e-006 -1.42883e-005 -3 8.02907 -4.95127 0.697509 -60.3872 -4.00164 2.59869 -99.0818 23.6483 7.98593 5.94826e-006 2.59074e-006 1.92317e-006 -17.1401 60.0958 12.3417 1.29915e-007 -7.68407e-006 3.00001 -8.02911 -4.95137 -0.697671 174.956 0.620262 0.961469 180 7.01527e-015 178.838 177.491 7.66756 179.573 2.08359e-006 -2.56809e-006 0.0775965 -18.3577 67.4411 19.0843 8.12789 25.2331 -3.48407 -172.423 0.872056 -0.614985 4.54188e-006 -4.6773e-006 -1.22699 -2.69709 -9.40868 0.524327 2.45166e-006 -6.74663e-007 -0.107187 18.1499 67.0889 -18.8068 -8.13649 25.2327 3.48774 
